<?xml version="1.0" encoding="UTF-8"?>
<svg version="1.1" xmlns="http://www.w3.org/2000/svg" width="200" height="100">
<path d="M0 0 C66 0 132 0 200 0 C200 33 200 66 200 100 C134 100 68 100 0 100 C0 67 0 34 0 0 Z " fill="#FBFBFB" transform="translate(0,0)"/>
<path d="M0 0 C24 0 24 0 28 2 C26.845 2.185625 25.69 2.37125 24.5 2.5625 C17.73534009 4.34016195 13.71555599 8.26197263 10.046875 14.1171875 C2.86867995 27.65924455 1.49006955 40.94303556 1 56 C7.39335042 52.15488889 12.86033585 48.40323667 18 43 C18.66 43 19.32 43 20 43 C20.01458252 44.06959961 20.02916504 45.13919922 20.04418945 46.24121094 C20.10222301 50.21485594 20.17945519 54.18793725 20.26245117 58.16113281 C20.29567681 59.87978965 20.32371616 61.59855499 20.34643555 63.31738281 C20.38002561 65.79018323 20.43234178 68.26199156 20.48828125 70.734375 C20.49467117 71.50118591 20.5010611 72.26799683 20.50764465 73.05804443 C20.62703194 77.40336508 21.13366958 79.7375411 24 83 C24 83.99 24 84.98 24 86 C28.02037533 82.23838964 28.02037533 82.23838964 29.16796875 77.04296875 C29.21328771 68.09700654 28.6925673 59.34251969 27.71166992 50.44799805 C27.11520582 44.92685434 26.91032142 39.55446703 27 34 C27.66 34 28.32 34 29 34 C29.144375 33.236875 29.28875 32.47375 29.4375 31.6875 C30 29 30 29 31 26 C31.09182942 24.46050671 31.13002352 22.91722145 31.125 21.375 C31.12757812 20.57835938 31.13015625 19.78171875 31.1328125 18.9609375 C31.21570074 16.99646464 31.21570074 16.99646464 30 16 C27.58517587 15.49940084 27.58517587 15.49940084 25 16 C21.7449581 20.05734096 21.83198282 23.12073185 22 28.1875 C21.71816986 34.59443858 20.55422598 37.40501762 15.8125 41.75 C12.0860668 44.74745926 8.32758344 46.97404983 4 49 C3.38304277 36.1124489 5.51284923 24.74544787 13 14 C16.77444501 10.00537903 20.02125288 7.24300403 25.5625 6.5625 C31.13629724 6.65370759 34.9377651 9.38134248 39 13 C49.54934037 24.80776422 49.72919382 43.49480529 49.17919922 58.44042969 C48.39282631 69.67249172 44.83272273 81.55132163 37.1875 90.00390625 C33.70140176 93.03315694 30.61750912 94.43006826 26 94.8125 C21.1563027 94.44903726 18.30255652 92.85901167 14.88671875 89.45703125 C8.69899156 81.39889378 4 71.24136592 4 61 C3.34 61 2.68 61 2 61 C4.6582033 74.42298404 7.46757899 86.95882384 17.875 96.6875 C23.27649216 98.95612671 27.99168835 98.5637366 33.5625 97 C34.7690625 96.505 34.7690625 96.505 36 96 C35.01 97.32 34.02 98.64 33 100 C22.11 100 11.22 100 0 100 C0 67 0 34 0 0 Z " fill="#F8F8F8" transform="translate(0,0)"/>
<path d="M0 0 C8.23034559 3.54756275 13.10637403 9.95465608 16.83203125 17.97265625 C24.42876626 37.66319014 24.52968295 59.31663739 16.45703125 78.8515625 C13.31278632 85.92542548 9.64926635 91.79361629 3 96 C-2.59121741 97.86373914 -7.23836751 97.86536333 -12.5625 95.25 C-22.26454449 87.149921 -26.00061672 76.00945352 -28 64 C-28.0525363 62.33416156 -28.07698902 60.66488752 -28 59 C-27.34 59 -26.68 59 -26 59 C-25.78085937 59.87140625 -25.56171875 60.7428125 -25.3359375 61.640625 C-21.1942319 77.62161625 -21.1942319 77.62161625 -10.984375 90.06640625 C-6.38419832 92.2306626 -1.80041074 91.92598752 2.94921875 90.35546875 C10.32371341 86.19592233 13.39738982 76.49636919 16.10546875 68.8984375 C20.64067974 52.41837503 19.66570789 31.08621814 11.3203125 16.01953125 C8.42760089 11.59488066 4.84501135 8.14081897 0 6 C-4.60090586 5.48878824 -6.93249959 5.50894981 -11.125 7.4375 C-18.75691112 14.23985556 -24.16385849 24.75726646 -25 35 C-25.06632865 38.66848451 -25.05874827 42.33149711 -25 46 C-23.24673802 44.75457942 -21.49752378 43.50345947 -19.75 42.25 C-18.77546875 41.55390625 -17.8009375 40.8578125 -16.796875 40.140625 C-11.50427999 36.41241661 -11.50427999 36.41241661 -9.53125 30.5390625 C-9.5209375 29.24742188 -9.510625 27.95578125 -9.5 26.625 C-9.45324773 20.79265488 -8.7892796 17.53880743 -5 13 C-2.375 12.5 -2.375 12.5 0 13 C2.36281649 15.36281649 2.29567658 15.90611822 2.3125 19.125 C2.22634465 23.95753208 0.92272098 27.59376443 -1 32 C-1.66 32 -2.32 32 -3 32 C-2.90912109 32.825 -2.81824219 33.65 -2.72460938 34.5 C0.2892366 62.19647174 0.2892366 62.19647174 0.4375 71.5 C0.46650391 73.21703125 0.46650391 73.21703125 0.49609375 74.96875 C-0.12868033 78.7862672 -1.58477373 81.01357496 -4 84 C-4.66 84 -5.32 84 -6 84 C-6.474375 83.030625 -6.94875 82.06125 -7.4375 81.0625 C-8.70193947 78.19522563 -8.70193947 78.19522563 -10 77 C-10.08855161 74.3337397 -10.11524673 71.69352886 -10.09765625 69.02734375 C-10.0962413 68.22970108 -10.09482635 67.43205841 -10.09336853 66.61024475 C-10.08775316 64.05262565 -10.07519812 61.49509282 -10.0625 58.9375 C-10.05748698 57.20768355 -10.05292373 55.47786574 -10.04882812 53.74804688 C-10.03777875 49.49866447 -10.02050386 45.24934688 -10 41 C-10.75273193 41.6199585 -11.50546387 42.23991699 -12.28100586 42.87866211 C-13.26979736 43.69085205 -14.25858887 44.50304199 -15.27734375 45.33984375 C-16.25695068 46.14542725 -17.23655762 46.95101074 -18.24584961 47.78100586 C-25.96468258 54 -25.96468258 54 -29 54 C-29.70243822 37.14148262 -28.52662268 20.40714906 -17.19921875 6.84375 C-12.07281187 1.48681947 -7.67885729 -1.13814207 0 0 Z " fill="#323132" transform="translate(30,2)"/>
<path d="M0 0 C10 0 10 0 13.0625 1.8125 C16.44304153 5.62924044 16.38150752 9.53093524 16.3671875 14.4140625 C15.7704111 18.61689203 13.74895954 20.83869653 11 24 C11.78375 24.0825 12.5675 24.165 13.375 24.25 C16 25 16 25 17.14453125 26.7421875 C19.11268342 31.93667131 18.62240254 37.41570263 16.625 42.5 C15 45 15 45 13 47 C8.71 47 4.42 47 0 47 C0 31.49 0 15.98 0 0 Z " fill="#191818" transform="translate(98,30)"/>
<path d="M0 0 C2.4375 0.375 2.4375 0.375 4.4375 2.375 C5.43401918 8.61295124 3.91363747 13.70051831 1.4375 19.375 C0.7775 19.375 0.1175 19.375 -0.5625 19.375 C-0.47162109 20.2 -0.38074219 21.025 -0.28710938 21.875 C2.7267366 49.57147174 2.7267366 49.57147174 2.875 58.875 C2.89433594 60.0196875 2.91367187 61.164375 2.93359375 62.34375 C2.30881967 66.1612672 0.85272627 68.38857496 -1.5625 71.375 C-2.2225 71.375 -2.8825 71.375 -3.5625 71.375 C-4.036875 70.405625 -4.51125 69.43625 -5 68.4375 C-6.26443947 65.57022563 -6.26443947 65.57022563 -7.5625 64.375 C-8.14942107 50.9986594 -7.51480603 37.5656899 -6.86978149 24.20056152 C-6.79003801 22.52751273 -6.71480923 20.85424255 -6.64413452 19.18078613 C-6.54144514 16.80315689 -6.41987577 14.42722626 -6.29296875 12.05078125 C-6.26468994 11.33499405 -6.23641113 10.61920685 -6.20727539 9.88172913 C-5.91785424 5.0315448 -5.36988144 0.78583631 0 0 Z " fill="#262425" transform="translate(27.5625,14.625)"/>
<path d="M0 0 C2.625 0.4375 2.625 0.4375 4.8125 2.375 C9.59950853 10.46339372 9.4716375 20.28575176 8.625 29.4375 C7.38491402 33.43853213 5.61322338 36.44927662 2.625 39.4375 C0.25 39.875 0.25 39.875 -2.375 39.4375 C-7.22980781 34.58269219 -8.62707848 29.71894546 -8.75439453 23.05273438 C-8.75294434 22.27220703 -8.75149414 21.49167969 -8.75 20.6875 C-8.74983887 19.88634766 -8.74967773 19.08519531 -8.74951172 18.25976562 C-8.62644165 11.89121368 -7.68298296 1.41528634 0 0 Z " fill="#F4F4F4" transform="translate(82.375,33.5625)"/>
<path d="M0 0 C21.45 0 42.9 0 65 0 C65 1.98 65 3.96 65 6 C43.55 6 22.1 6 0 6 C0 4.02 0 2.04 0 0 Z " fill="#0C0B0B" transform="translate(53,80)"/>
<path d="M0 0 C4.5375608 2.63811675 6.60754929 6.0418551 8 11 C8.42264813 14.80023615 8.41942062 18.55482647 8.375 22.375 C8.38660156 23.365 8.39820312 24.355 8.41015625 25.375 C8.38099997 32.74182125 7.47445989 39.37668373 3.25 45.5625 C-0.13993311 47.7282906 -2.05956933 47.74732306 -6 47 C-10.05586181 44.1082352 -12.21600742 40.35246235 -13.375 35.5625 C-15.1438185 23.49399876 -15.46090243 11.6452634 -8.125 1.375 C-5.16350003 -0.54126469 -3.46522146 -0.56575044 0 0 Z M-9 9 C-11.08597747 14.02428981 -11.36606206 18.52117479 -11.375 23.875 C-11.39949219 24.63941406 -11.42398438 25.40382813 -11.44921875 26.19140625 C-11.47847662 31.93570172 -10.13918395 36.17595151 -7 41 C-5.17899853 43.19920496 -5.17899853 43.19920496 -2.625 43.4375 C0.19495698 43.22886254 0.19495698 43.22886254 2.1875 40.8125 C7.51843705 32.5403563 7.0328349 22.33039226 5.25 12.875 C4.25430845 9.19163754 2.9086987 6.57627599 0 4 C-4.88730682 2.7781733 -6.48692033 5.01373569 -9 9 Z " fill="#121212" transform="translate(85,30)"/>
<path d="M0 0 C6.15234375 -0.09765625 6.15234375 -0.09765625 8 0 C10.08245827 2.08245827 9.16412802 6.58081463 9.16796875 9.453125 C9.17129715 10.30549744 9.17462555 11.15786987 9.17805481 12.03607178 C9.18312934 13.84516865 9.18546297 15.65427492 9.18530273 17.46337891 C9.18747985 20.22444277 9.20560379 22.98510116 9.22460938 25.74609375 C9.22754511 27.5026028 9.2295287 29.25911375 9.23046875 31.015625 C9.23765427 31.83975891 9.24483978 32.66389282 9.25224304 33.51300049 C9.23101808 38.87475117 8.97378088 43.02621912 5 47 C2.8359375 47.1953125 2.8359375 47.1953125 0.375 47.125 C-0.44226562 47.10695312 -1.25953125 47.08890625 -2.1015625 47.0703125 C-2.72804687 47.04710937 -3.35453125 47.02390625 -4 47 C-4 45.68 -4 44.36 -4 43 C-2.88625 42.87625 -1.7725 42.7525 -0.625 42.625 C3.03103677 42.3534187 3.03103677 42.3534187 5 40 C5.24543141 37.35212211 5.37349386 34.80096177 5.4140625 32.1484375 C5.43342865 31.37440582 5.4527948 30.60037415 5.4727478 29.80288696 C5.5325983 27.32703725 5.57895011 24.85114117 5.625 22.375 C5.66317482 20.69789623 5.70222625 19.02081216 5.7421875 17.34375 C5.83830409 13.22932647 5.92231439 9.11481114 6 5 C4.02 5 2.04 5 0 5 C0 3.35 0 1.7 0 0 Z " fill="#363536" transform="translate(58,30)"/>
<path d="M0 0 C8 0 8 0 10.5 1.4375 C12.74538394 5.27336423 12.74009218 8.66737703 12 13 C10.5 16.0625 10.5 16.0625 8 18 C5.36 18 2.72 18 0 18 C0 12.06 0 6.12 0 0 Z " fill="#EDECED" transform="translate(101,55)"/>
<path d="M0 0 C2.4375 0.375 2.4375 0.375 4.4375 2.375 C5.93863381 6.87840143 6.01971561 11.69459139 5.4375 16.375 C3.4375 19.5 3.4375 19.5 1.4375 21.375 C-1.33063126 21.08864159 -2.3937917 20.55575889 -4.3125 18.5 C-6.15247258 13.90006855 -6.3060212 9.26620318 -5.5625 4.375 C-3.26923748 0.478425 -3.26923748 0.478425 0 0 Z " fill="#F2F2F2" transform="translate(135.5625,57.625)"/>
<path d="M0 0 C3.3 0 6.6 0 10 0 C10 0.33 10 0.66 10 1 C7.03 1 4.06 1 1 1 C1 14.86 1 28.72 1 43 C5.95 42.505 5.95 42.505 11 42 C14.23945545 37.68072606 14.35373864 36.84798489 14.1875 31.75 C14.16042969 30.67234375 14.13335937 29.5946875 14.10546875 28.484375 C14.07066406 27.66453125 14.03585938 26.8446875 14 26 C14.66 25.67 15.32 25.34 16 25 C18.64242257 29.56896971 18.54500651 33.84277425 18 39 C16.66362375 42.401685 15.56521154 44.43478846 13 47 C8.71 47 4.42 47 0 47 C0 31.49 0 15.98 0 0 Z " fill="#383838" transform="translate(98,30)"/>
<path d="M0 0 C0.66 0 1.32 0 2 0 C2.21914062 0.87140625 2.43828125 1.7428125 2.6640625 2.640625 C6.81955404 18.53509087 6.81955404 18.53509087 16.98828125 30.953125 C20.763627 32.91777094 24.80884117 33.51089092 29 34 C28.01 34.495 28.01 34.495 27 35 C27 35.66 27 36.32 27 37 C25.43908834 37.10911227 23.87591508 37.18609398 22.3125 37.25 C21.44238281 37.29640625 20.57226562 37.3428125 19.67578125 37.390625 C15.12588522 36.7264066 12.80013974 33.93573139 9.90234375 30.546875 C3.59229684 21.5647804 -0.51733958 11.18746832 0 0 Z " fill="#2D2D2E" transform="translate(2,61)"/>
<path d="M0 0 C4.66256021 2.71079082 6.36959445 5.92762716 8 11 C7.73662813 14.16046246 6.82135204 15.26797194 5 18 C4.89042969 17.39671875 4.78085938 16.7934375 4.66796875 16.171875 C3.61874142 9.9376036 3.61874142 9.9376036 0 5 C-2.5 4.33333333 -2.5 4.33333333 -5 5 C-11.00622207 11.74568158 -11.52418962 21.36978416 -12 30 C-12.66 30 -13.32 30 -14 30 C-14.47789672 19.30042337 -14.60858472 10.45201861 -8.125 1.375 C-5.16350003 -0.54126469 -3.46522146 -0.56575044 0 0 Z " fill="#1B1A1B" transform="translate(85,30)"/>
<path d="M0 0 C2.64 0 5.28 0 8 0 C10.60186108 2.60186108 10.29810177 3.82354355 10.3125 7.4375 C10.33763672 8.88962891 10.33763672 8.88962891 10.36328125 10.37109375 C10 13 10 13 8.91796875 14.84765625 C7 16 7 16 0 16 C0 10.72 0 5.44 0 0 Z " fill="#EEEDED" transform="translate(101,35)"/>
<path d="M0 0 C1.98 0 3.96 0 6 0 C8 2 8 2 8.23046875 3.98828125 C8.11061041 10.47152806 8.11061041 10.47152806 7.4375 13.6875 C6.87678855 16.6512605 7.38689572 19.070724 8 22 C5.47740939 20.02579865 5.0070192 19.03254358 4.3125 15.8125 C4.209375 14.884375 4.10625 13.95625 4 13 C3.34 13 2.68 13 2 13 C2 15.97 2 18.94 2 22 C1.34 22 0.68 22 0 22 C0 14.74 0 7.48 0 0 Z " fill="#626161" transform="translate(156,57)"/>
<path d="M0 0 C0.99 0 1.98 0 3 0 C4.32 3.96 5.64 7.92 7 12 C7.33 8.04 7.66 4.08 8 0 C8.66 0 9.32 0 10 0 C10 7.26 10 14.52 10 22 C9.01 21.67 8.02 21.34 7 21 C5.31575302 16.75840143 4.23864893 12.39933932 3 8 C2.67 12.62 2.34 17.24 2 22 C1.34 22 0.68 22 0 22 C0 14.74 0 7.48 0 0 Z " fill="#585757" transform="translate(167,57)"/>
<path d="M0 0 C0.33 0 0.66 0 1 0 C1.94997239 7.12479291 -0.97981183 12.22785615 -5 18 C-8.79107165 22.06951194 -12.43346454 25.84600451 -18.26171875 26.09765625 C-19.06222656 26.08605469 -19.86273438 26.07445313 -20.6875 26.0625 C-21.89986328 26.04896484 -21.89986328 26.04896484 -23.13671875 26.03515625 C-23.75160156 26.02355469 -24.36648437 26.01195313 -25 26 C-25 25.67 -25 25.34 -25 25 C-22.36 25 -19.72 25 -17 25 C-17 24.34 -17 23.68 -17 23 C-18.98 22.67 -20.96 22.34 -23 22 C-23 21.67 -23 21.34 -23 21 C-22.00419922 20.85304688 -22.00419922 20.85304688 -20.98828125 20.703125 C-20.10527344 20.55359375 -19.22226562 20.4040625 -18.3125 20.25 C-17.44238281 20.11078125 -16.57226562 19.9715625 -15.67578125 19.828125 C-10.848287 18.33406838 -8.19759866 15.63905207 -5.76171875 11.328125 C-5.05872839 9.97470431 -4.36748212 8.61512538 -3.6875 7.25 C-3.32849609 6.55261719 -2.96949219 5.85523437 -2.59960938 5.13671875 C-1.72274057 3.42974748 -0.85991985 1.71557211 0 0 Z " fill="#373637" transform="translate(46,73)"/>
<path d="M0 0 C2.5625 0.1875 2.5625 0.1875 4.5625 2.1875 C5.55901918 8.42545124 4.03863747 13.51301831 1.5625 19.1875 C0.5725 19.1875 -0.4175 19.1875 -1.4375 19.1875 C-1.79826001 16.20899379 -2.15140416 13.22993216 -2.5 10.25 C-2.60376953 9.39986328 -2.70753906 8.54972656 -2.81445312 7.67382812 C-2.90791016 6.86494141 -3.00136719 6.05605469 -3.09765625 5.22265625 C-3.18668213 4.4737915 -3.27570801 3.72492676 -3.36743164 2.95336914 C-3.3905542 2.37063232 -3.41367676 1.78789551 -3.4375 1.1875 C-2.4375 0.1875 -2.4375 0.1875 0 0 Z " fill="#4A494A" transform="translate(27.4375,14.8125)"/>
<path d="M0 0 C0.33 0 0.66 0 1 0 C1 5.61 1 11.22 1 17 C3.97 17 6.94 17 10 17 C10 17.99 10 18.98 10 20 C11.32 20.33 12.64 20.66 14 21 C13.34 21.66 12.68 22.32 12 23 C8.58425242 22.65282566 5.35279506 21.77372194 2 21 C2 26.94 2 32.88 2 39 C1.34 39 0.68 39 0 39 C0 26.13 0 13.26 0 0 Z " fill="#050505" transform="translate(99,34)"/>
<path d="M0 0 C0.33 0 0.66 0 1 0 C1.07411371 5.49923749 1.12858464 10.99818479 1.16479492 16.49780273 C1.17988873 18.36894799 1.20036589 20.24005783 1.22631836 22.11108398 C1.26267593 24.79940526 1.27972015 27.48725913 1.29296875 30.17578125 C1.30845261 31.01337479 1.32393646 31.85096832 1.33988953 32.71394348 C1.34159021 38.57256181 1.34159021 38.57256181 -0.37992859 40.72673035 C-2.56344114 42.44282771 -3.94801381 42.3066081 -6.6875 42.1875 C-7.89986328 42.14689453 -7.89986328 42.14689453 -9.13671875 42.10546875 C-9.75160156 42.07066406 -10.36648437 42.03585938 -11 42 C-11 40.68 -11 39.36 -11 38 C-9.88625 37.87625 -8.7725 37.7525 -7.625 37.625 C-3.96896323 37.3534187 -3.96896323 37.3534187 -2 35 C-0.89629165 31.01658791 -0.80619902 27.06525297 -0.68359375 22.94921875 C-0.66281265 22.29041214 -0.64203156 21.63160553 -0.62062073 20.95283508 C-0.55564511 18.86448815 -0.49648425 16.77602388 -0.4375 14.6875 C-0.39426521 13.2649622 -0.3506494 11.84243594 -0.30664062 10.41992188 C-0.20001784 6.94673703 -0.09860652 3.47342274 0 0 Z " fill="#0F0E0E" transform="translate(65,35)"/>
<path d="M0 0 C0 0.33 0 0.66 0 1 C-0.58007812 1.15855469 -1.16015625 1.31710938 -1.7578125 1.48046875 C-9.32584822 3.74088866 -13.93738075 6.80617749 -17.875 13.8125 C-18.59578772 15.201943 -19.30856713 16.59571819 -20 18 C-20.99 17.67 -21.98 17.34 -23 17 C-21.56930532 11.27722126 -18.63249956 7.49057033 -15 3 C-14.443125 2.154375 -13.88625 1.30875 -13.3125 0.4375 C-9.24785299 -2.08917247 -4.56263099 -0.72372767 0 0 Z " fill="#262426" transform="translate(29,5)"/>
<path d="M0 0 C2.4375 0.375 2.4375 0.375 4.4375 2.375 C5.93863381 6.87840143 6.01971561 11.69459139 5.4375 16.375 C3.4375 19.5 3.4375 19.5 1.4375 21.375 C-1.33063126 21.08864159 -2.3937917 20.55575889 -4.3125 18.5 C-6.15247258 13.90006855 -6.3060212 9.26620318 -5.5625 4.375 C-3.26923748 0.478425 -3.26923748 0.478425 0 0 Z M-1.5625 2.375 C-3.83807135 4.22731097 -3.83807135 4.22731097 -3.828125 7.08984375 C-3.82296875 8.15332031 -3.8178125 9.21679688 -3.8125 10.3125 C-3.81765625 11.37339844 -3.8228125 12.43429688 -3.828125 13.52734375 C-3.77109765 16.57671473 -3.77109765 16.57671473 -1.5625 19.375 C0.42241642 19.10823796 0.42241642 19.10823796 2.4375 18.375 C3.46516017 15.29201949 3.60348738 13.04369574 3.625 9.8125 C3.63917969 8.84183594 3.65335938 7.87117188 3.66796875 6.87109375 C3.68957746 4.20101084 3.68957746 4.20101084 1.4375 2.375 C0.4475 2.375 -0.5425 2.375 -1.5625 2.375 Z " fill="#414040" transform="translate(135.5625,57.625)"/>
<path d="M0 0 C2.64 0 5.28 0 8 0 C8 0.99 8 1.98 8 3 C6.02 3 4.04 3 2 3 C2 5.31 2 7.62 2 10 C3.65 10 5.3 10 7 10 C7 10.66 7 11.32 7 12 C5.35 12 3.7 12 2 12 C2 14.64 2 17.28 2 20 C3.98 20 5.96 20 8 20 C8 20.66 8 21.32 8 22 C5.36 22 2.72 22 0 22 C0 14.74 0 7.48 0 0 Z " fill="#444344" transform="translate(180,57)"/>
<path d="M0 0 C0.33 0 0.66 0 1 0 C1.49338142 13.01008847 0.94518703 24.54800343 -3 37 C-5.15681708 33.56833564 -5.033175 31.6564729 -4.1875 27.75 C-2.7383943 20.19595224 -2.3697065 12.66654535 -2 5 C-1.67 5 -1.34 5 -1 5 C-0.67 3.35 -0.34 1.7 0 0 Z " fill="#535252" transform="translate(51,40)"/>
<path d="M0 0 C0.33 0 0.66 0 1 0 C1.33 6.27 1.66 12.54 2 19 C3.32 19 4.64 19 6 19 C6.33 12.73 6.66 6.46 7 0 C7.66 0 8.32 0 9 0 C9.08152344 2.54232342 9.14073716 5.08199202 9.1875 7.625 C9.22520508 8.69427734 9.22520508 8.69427734 9.26367188 9.78515625 C9.33024446 14.62276416 8.55559453 17.74738338 6 22 C3.5625 21.625 3.5625 21.625 1 21 C-0.17426264 18.65147472 -0.11508173 17.26225935 -0.09765625 14.6484375 C-0.09443359 13.79765625 -0.09121094 12.946875 -0.08789062 12.0703125 C-0.07951172 11.18085937 -0.07113281 10.29140625 -0.0625 9.375 C-0.05798828 8.4778125 -0.05347656 7.580625 -0.04882812 6.65625 C-0.03702591 4.43743352 -0.02056155 2.21874982 0 0 Z " fill="#5A5959" transform="translate(144,57)"/>
<path d="M0 0 C2.34058637 2.12780579 3.70700306 4.11562221 5 7 C5.99 4.69 6.98 2.38 8 0 C9.18359054 3.55077162 8.70430145 4.67729482 7.625 8.1875 C6.27381406 12.82718872 5.45330713 17.19494442 5 22 C4.67 22 4.34 22 4 22 C3.896875 20.72125 3.79375 19.4425 3.6875 18.125 C3.19987925 13.59299539 2.05333082 9.48133215 0.62109375 5.1640625 C0 3 0 3 0 0 Z " fill="#515050" transform="translate(190,57)"/>
<path d="M0 0 C4 2 4 2 5.75 3.0625 C9.10353662 4.45980692 12.39033025 4.63903303 16 5 C15.01 5.495 15.01 5.495 14 6 C14 6.66 14 7.32 14 8 C4.98468271 8.63019694 4.98468271 8.63019694 0.875 6 C0.25625 5.34 -0.3625 4.68 -1 4 C-0.67 2.68 -0.34 1.36 0 0 Z " fill="#252425" transform="translate(15,90)"/>
<path d="M0 0 C4.68172416 7.02258624 4.26552863 15.39562476 4.125 23.5625 C4.11597656 24.57119141 4.10695313 25.57988281 4.09765625 26.61914062 C4.07433356 29.07968457 4.04160763 31.53970896 4 34 C3.67 34 3.34 34 3 34 C1.49028519 22.71378251 0 11.40699065 0 0 Z " fill="#383737" transform="translate(47,23)"/>
<path d="M0 0 C2.06390941 3.09586412 2.25513177 3.79748452 2.265625 7.30859375 C2.26820312 8.13810547 2.27078125 8.96761719 2.2734375 9.82226562 C2.26570313 10.68529297 2.25796875 11.54832031 2.25 12.4375 C2.25773437 13.29666016 2.26546875 14.15582031 2.2734375 15.04101562 C2.27085938 15.87181641 2.26828125 16.70261719 2.265625 17.55859375 C2.26336914 18.31454834 2.26111328 19.07050293 2.25878906 19.84936523 C1.96841762 22.26246152 1.19796935 23.90176917 0 26 C-0.80866672 22.52300537 -1.07549313 19.47837556 -0.87890625 15.91796875 C-0.83056641 14.98662109 -0.78222656 14.05527344 -0.73242188 13.09570312 C-0.67634766 12.13599609 -0.62027344 11.17628906 -0.5625 10.1875 C-0.51029297 9.20845703 -0.45808594 8.22941406 -0.40429688 7.22070312 C-0.27512661 4.8134391 -0.14018357 2.40664362 0 0 Z " fill="#0B0B0B" transform="translate(91,42)"/>
<path d="M0 0 C1.99954746 -0.04254356 4.00041636 -0.04080783 6 0 C7 1 7 1 7.1328125 2.890625 C7.11102804 9.46953271 7.11102804 9.46953271 6.4375 12.6875 C5.87678855 15.6512605 6.38689572 18.070724 7 21 C4.47740939 19.02579865 4.0070192 18.03254358 3.3125 14.8125 C3.209375 13.884375 3.10625 12.95625 3 12 C2.01 12 1.02 12 0 12 C0 11.34 0 10.68 0 10 C1.65 10 3.3 10 5 10 C5 7.69 5 5.38 5 3 C2.525 2.01 2.525 2.01 0 1 C0 0.67 0 0.34 0 0 Z " fill="#333233" transform="translate(157,58)"/>
<path d="M0 0 C0.33 0 0.66 0 1 0 C1.11465457 11.72024504 0.90289857 23.31068812 0 35 C-0.33 35 -0.66 35 -1 35 C-1.19594676 31.85463232 -1.3803401 28.70869386 -1.5625 25.5625 C-1.61857422 24.66466797 -1.67464844 23.76683594 -1.73242188 22.84179688 C-1.78076172 21.98779297 -1.82910156 21.13378906 -1.87890625 20.25390625 C-1.9260376 19.46314697 -1.97316895 18.6723877 -2.02172852 17.85766602 C-2 16 -2 16 -1 15 C-0.76346477 12.47403741 -0.57826308 9.96892793 -0.4375 7.4375 C-0.39431641 6.72658203 -0.35113281 6.01566406 -0.30664062 5.28320312 C-0.20028223 3.52238088 -0.09961154 1.7612168 0 0 Z " fill="#696768" transform="translate(21,21)"/>
<path d="M0 0 C1.71847703 5.1554311 2.44847349 7.95902516 0 13 C-0.99 13 -1.98 13 -3 13 C-3.08086147 11.20906809 -3.13912702 9.41710372 -3.1875 7.625 C-3.22230469 6.62726562 -3.25710937 5.62953125 -3.29296875 4.6015625 C-3.14794922 3.31378906 -3.14794922 3.31378906 -3 2 C-2.01 1.34 -1.02 0.68 0 0 Z " fill="#5D5C5C" transform="translate(29,21)"/>
<path d="M0 0 C0.33 0 0.66 0 1 0 C1.05790353 3.29159316 1.09356261 6.58305603 1.125 9.875 C1.14175781 10.81214844 1.15851563 11.74929687 1.17578125 12.71484375 C1.18222656 13.61074219 1.18867187 14.50664063 1.1953125 15.4296875 C1.20578613 16.25710449 1.21625977 17.08452148 1.22705078 17.93701172 C1 20 1 20 -1 22 C-3.125 21.625 -3.125 21.625 -5 21 C-5.33 19.35 -5.66 17.7 -6 16 C-4.68 16.99 -3.36 17.98 -2 19 C-0.48578999 17.48578999 -0.78690144 16.07527232 -0.68359375 13.96484375 C-0.64169922 13.15595703 -0.59980469 12.34707031 -0.55664062 11.51367188 C-0.49766602 10.2384668 -0.49766602 10.2384668 -0.4375 8.9375 C-0.37272461 7.65649414 -0.37272461 7.65649414 -0.30664062 6.34960938 C-0.20023298 4.23327963 -0.09958269 2.11666187 0 0 Z " fill="#373536" transform="translate(126,57)"/>
<path d="M0 0 C0.33 0 0.66 0 1 0 C0.67 5.94 0.34 11.88 0 18 C-0.66 18 -1.32 18 -2 18 C-2 12.72 -2 7.44 -2 2 C-1.34 2 -0.68 2 0 2 C0 1.34 0 0.68 0 0 Z " fill="#313031" transform="translate(73,42)"/>
<path d="M0 0 C0.99 0.33 1.98 0.66 3 1 C2.01 5.62 1.02 10.24 0 15 C-0.99 15 -1.98 15 -3 15 C-2.5547115 9.72684667 -1.91626837 4.98229776 0 0 Z " fill="#3F3E3F" transform="translate(5,22)"/>
<path d="M0 0 C2.475 0.495 2.475 0.495 5 1 C5 2.65 5 4.3 5 6 C3.35 6.33 1.7 6.66 0 7 C0 4.69 0 2.38 0 0 Z " fill="#F2F1F1" transform="translate(158,60)"/>
<path d="M0 0 C0.33 0 0.66 0 1 0 C1.06058594 1.20398437 1.12117187 2.40796875 1.18359375 3.6484375 C1.26799732 5.22397077 1.35264541 6.79949096 1.4375 8.375 C1.47681641 9.1690625 1.51613281 9.963125 1.55664062 10.78125 C1.68893404 15.02601221 1.68893404 15.02601221 3 19 C3.99 19.33 4.98 19.66 6 20 C6 20.66 6 21.32 6 22 C3.5625 21.625 3.5625 21.625 1 21 C-0.17426264 18.65147472 -0.11508173 17.26225935 -0.09765625 14.6484375 C-0.09443359 13.79765625 -0.09121094 12.946875 -0.08789062 12.0703125 C-0.07951172 11.18085937 -0.07113281 10.29140625 -0.0625 9.375 C-0.05798828 8.4778125 -0.05347656 7.580625 -0.04882812 6.65625 C-0.03702591 4.43743352 -0.02056155 2.21874982 0 0 Z " fill="#2D2D2D" transform="translate(144,57)"/>
<path d="M0 0 C0.33 0 0.66 0 1 0 C1.06058594 0.95261719 1.12117188 1.90523437 1.18359375 2.88671875 C1.26738281 4.14097656 1.35117188 5.39523438 1.4375 6.6875 C1.51871094 7.92886719 1.59992188 9.17023437 1.68359375 10.44921875 C1.94491317 13.38180337 2.34798379 16.13441617 3 19 C2.01 19.66 1.02 20.32 0 21 C-1.01202288 13.82242235 -0.88826175 7.18808741 0 0 Z " fill="#1F1E1E" transform="translate(73,49)"/>
<path d="M0 0 C1 3 1 3 0.22265625 4.82421875 C-0.8515625 6.54947917 -1.92578125 8.27473958 -3 10 C-3.99 9.67 -4.98 9.34 -6 9 C-4.25 3.25 -4.25 3.25 -2 1 C-1.34 0.67 -0.68 0.34 0 0 Z " fill="#323132" transform="translate(12,13)"/>
<path d="M0 0 C2.80045623 3.14591933 3.35261589 5.067064 3.1875 9.25 C3.16042969 10.14203125 3.13335937 11.0340625 3.10546875 11.953125 C3.07066406 12.62859375 3.03585938 13.3040625 3 14 C0.85159327 12.25586336 0.06622501 11.29612041 -0.546875 8.5546875 C-0.61390625 7.67039062 -0.6809375 6.78609375 -0.75 5.875 C-0.82734375 4.98554687 -0.9046875 4.09609375 -0.984375 3.1796875 C-0.99210937 2.10074219 -0.99210937 2.10074219 -1 1 C-0.67 0.67 -0.34 0.34 0 0 Z " fill="#3D3C3D" transform="translate(113,55)"/>
<path d="M0 0 C1.21065165 3.63195496 0.62784815 5.06531629 -0.4375 8.6875 C-0.86869141 10.17830078 -0.86869141 10.17830078 -1.30859375 11.69921875 C-1.53675781 12.45847656 -1.76492187 13.21773437 -2 14 C-2.33 14 -2.66 14 -3 14 C-3.34615998 8.34605369 -2.43425238 4.96993194 0 0 Z " fill="#686767" transform="translate(198,57)"/>
<path d="M0 0 C0.33 0.99 0.66 1.98 1 3 C-0.9375 5.6875 -0.9375 5.6875 -3 8 C-3.99 7.34 -4.98 6.68 -6 6 C-4 4 -2 2 0 0 Z " fill="#2B2B2C" transform="translate(43,83)"/>
<path d="M0 0 C1.65 1.65 3.3 3.3 5 5 C4.67 5.99 4.34 6.98 4 8 C2.0625 7.25 2.0625 7.25 0 6 C-0.8125 4 -0.8125 4 -1 2 C-0.67 1.34 -0.34 0.68 0 0 Z " fill="#2B2B2C" transform="translate(11,84)"/>
<path d="M0 0 C1.5625 1.6875 1.5625 1.6875 3 4 C2.6875 6.75 2.6875 6.75 2 9 C-2 4.25 -2 4.25 -2 2 C-1.34 2 -0.68 2 0 2 C0 1.34 0 0.68 0 0 Z " fill="#3B3A3B" transform="translate(8,78)"/>
<path d="M0 0 C0.33 0 0.66 0 1 0 C1 3.3 1 6.6 1 10 C0.01 10.33 -0.98 10.66 -2 11 C-1.85957123 9.35369672 -1.71250671 7.70795821 -1.5625 6.0625 C-1.48128906 5.14597656 -1.40007812 4.22945313 -1.31640625 3.28515625 C-1 1 -1 1 0 0 Z " fill="#636262" transform="translate(140,64)"/>
<path d="M0 0 C0.33 0 0.66 0 1 0 C1.10824843 1.6026782 1.18570645 3.20745748 1.25 4.8125 C1.29640625 5.70582031 1.3428125 6.59914063 1.390625 7.51953125 C1 10 1 10 -1.015625 11.82421875 C-1.67046875 12.21222656 -2.3253125 12.60023437 -3 13 C-3 10 -3 10 -1 7 C-0.60612212 4.67612053 -0.26513915 2.34206251 0 0 Z " fill="#121111" transform="translate(112,39)"/>
<path d="M0 0 C0.99 0 1.98 0 3 0 C3.6875 3.3125 3.6875 3.3125 4 7 C3.01 7.99 2.02 8.98 1 10 C0.67 6.7 0.34 3.4 0 0 Z " fill="#373636" transform="translate(89,38)"/>
<path d="M0 0 C0.33 0 0.66 0 1 0 C1.08096803 1.45742463 1.13917774 2.91612807 1.1875 4.375 C1.22230469 5.18710937 1.25710937 5.99921875 1.29296875 6.8359375 C1.19628906 7.55007812 1.09960938 8.26421875 1 9 C0.01 9.66 -0.98 10.32 -2 11 C-2 8.36 -2 5.72 -2 3 C-1.34 3 -0.68 3 0 3 C0 2.01 0 1.02 0 0 Z " fill="#434242" transform="translate(31,17)"/>
<path d="M0 0 C1 3 1 3 -0.4375 6.1875 C-1.2109375 7.5796875 -1.2109375 7.5796875 -2 9 C-2.33 9 -2.66 9 -3 9 C-3.1875 5.625 -3.1875 5.625 -3 2 C-2.01 1.34 -1.02 0.68 0 0 Z " fill="#DAD9D9" transform="translate(29,21)"/>
<path d="M0 0 C0.33 0.66 0.66 1.32 1 2 C3.02463255 2.65213292 3.02463255 2.65213292 5 3 C4.34 3.66 3.68 4.32 3 5 C0.6171875 4.7578125 0.6171875 4.7578125 -2.125 4.125 C-3.03507812 3.92132813 -3.94515625 3.71765625 -4.8828125 3.5078125 C-5.58148438 3.34023438 -6.28015625 3.17265625 -7 3 C-7 2.67 -7 2.34 -7 2 C-4.69 2 -2.38 2 0 2 C0 1.34 0 0.68 0 0 Z " fill="#121112" transform="translate(108,52)"/>
</svg>
